HIERARCHY
ROOT Hips
{
	OFFSET 0.000000 0.000000 0.000000
	CHANNELS 6 Xposition Yposition Zposition Xrotation Yrotation Zrotation
	JOINT Chest
	{
		OFFSET 0.000000 0.009282 11.569106
		CHANNELS 3 Xrotation Yrotation Zrotation
		JOINT Chest2
		{
			OFFSET 0.000000 -0.016863 9.269641
			CHANNELS 3 Xrotation Yrotation Zrotation
			JOINT Chest3
			{
				OFFSET 0.000000 -0.000000 8.374491
				CHANNELS 3 Xrotation Yrotation Zrotation
				JOINT Chest4
				{
					OFFSET 0.000000 -0.000000 8.374493
					CHANNELS 3 Xrotation Yrotation Zrotation
					JOINT Neck
					{
						OFFSET 0.000000 -0.000001 12.152554
						CHANNELS 3 Xrotation Yrotation Zrotation
						JOINT Head
						{
							OFFSET 0.000000 -0.040100 7.802319
							CHANNELS 3 Xrotation Yrotation Zrotation
							End Site
							{
								OFFSET 0.000000 -0.020946 14.853096
							}
						}
					}
					JOINT RightCollar
					{
						OFFSET -2.894404 -0.000000 6.791374
						CHANNELS 3 Xrotation Yrotation Zrotation
						JOINT RightShoulder
						{
							OFFSET -13.574684 0.000000 0.000000
							CHANNELS 3 Xrotation Yrotation Zrotation
							JOINT RightElbow
							{
								OFFSET -23.923903 0.000000 0.000000
								CHANNELS 3 Xrotation Yrotation Zrotation
								JOINT RightWrist
								{
									OFFSET -19.846718 -0.012765 0.000000
									CHANNELS 3 Xrotation Yrotation Zrotation
									End Site
									{
										OFFSET -14.973145 0.000000 0.000000
									}
								}
							}
						}
					}
					JOINT LeftCollar
					{
						OFFSET 2.894404 -0.000000 6.791374
						CHANNELS 3 Xrotation Yrotation Zrotation
						JOINT LeftShoulder
						{
							OFFSET 13.574684 0.000000 0.000000
							CHANNELS 3 Xrotation Yrotation Zrotation
							JOINT LeftElbow
							{
								OFFSET 23.923903 0.000000 0.000000
								CHANNELS 3 Xrotation Yrotation Zrotation
								JOINT LeftWrist
								{
									OFFSET 19.846718 -0.012765 0.000000
									CHANNELS 3 Xrotation Yrotation Zrotation
									End Site
									{
										OFFSET 14.973145 0.000000 0.000000
									}
								}
							}
						}
					}
				}
			}
		}
	}
	JOINT RightHip
	{
		OFFSET -9.469263 -0.004642 0.045487
		CHANNELS 3 Xrotation Yrotation Zrotation
		JOINT RightKnee
		{
			OFFSET 0.000000 -0.002666 -40.478676
			CHANNELS 3 Xrotation Yrotation Zrotation
			JOINT RightAnkle
			{
				OFFSET 0.000000 -0.049110 -35.224068
				CHANNELS 3 Xrotation Yrotation Zrotation
				JOINT RightToe
				{
					OFFSET 0.000000 -12.539530 -6.151390
					CHANNELS 3 Xrotation Yrotation Zrotation
					End Site
					{
						OFFSET 0.000000 -5.044995 -1.291870
					}
				}
			}
		}
	}
	JOINT LeftHip
	{
		OFFSET 9.469263 -0.004642 0.045487
		CHANNELS 3 Xrotation Yrotation Zrotation
		JOINT LeftKnee
		{
			OFFSET 0.000000 -0.002666 -40.478676
			CHANNELS 3 Xrotation Yrotation Zrotation
			JOINT LeftAnkle
			{
				OFFSET 0.000000 -0.049110 -35.224068
				CHANNELS 3 Xrotation Yrotation Zrotation
				JOINT LeftToe
				{
					OFFSET 0.000000 -12.539530 -6.151390
					CHANNELS 3 Xrotation Yrotation Zrotation
					End Site
					{
						OFFSET 0.000000 -5.044995 -1.291870
					}
				}
			}
		}
	}
}
MOTION
Frames: 15
Frame Time: 0.016667
0.000000 -0.000004 81.649483 -5.826342 0.000000 -0.000000 11.116424 0.000000 -0.000000 -5.290081 0.000000 -0.000000 -0.000000 0.000000 -0.000000 -0.000000 0.000000 -0.000000 12.665070 0.000000 -0.000000 0.575450 0.000000 -0.000000 -0.000000 0.000000 -0.000000 -0.000000 0.000000 -0.000000 0.000000 -0.000000 2.337306 0.000000 0.000000 -2.337305 -0.000000 0.000000 -0.000000 -0.000000 0.000000 -0.000000 0.000000 0.000000 -2.337306 0.000000 -0.000000 2.337305 8.578828 -0.000001 0.000000 1.905768 -0.000000 0.000000 -4.658254 0.000000 0.000000 -0.000000 -0.000000 -0.000000 8.578828 -0.000001 0.000000 1.905768 -0.000000 0.000000 -4.658254 -0.000000 -0.000000 -0.000000 -0.000000 -0.000000 
-14.225987 -5.684806 82.753677 3.844029 6.304294 -113.752989 3.238101 -0.223664 0.558184 1.436516 -0.102189 0.240986 1.436516 -0.102189 0.240986 1.077348 -0.077208 0.180502 18.194603 -0.184879 0.686387 -2.391790 -0.565073 1.191735 2.011702 -10.270231 -1.206061 15.401168 -77.487704 18.994688 11.898745 1.462833 1.340895 -9.500466 16.308680 21.477001 0.469366 9.261377 -1.982834 -9.289023 79.865887 8.750725 0.288972 1.257911 -1.673150 -4.030863 -9.408639 -16.577052 7.189293 -1.997025 -6.744081 4.828736 -2.180835 -7.712768 -5.354664 2.048490 -2.015203 0.013420 -0.036320 0.007804 10.921794 3.750423 3.836936 2.966586 1.356644 10.530787 -7.276018 -3.930125 5.609656 0.030918 0.013553 -0.003665 
-14.232965 -5.669594 82.751961 3.840210 6.321001 -113.716188 3.235355 -0.225128 0.557695 1.435051 -0.102818 0.240993 1.435050 -0.102818 0.240991 1.076247 -0.077679 0.180503 18.194685 -0.185217 0.683166 -2.391674 -0.564624 1.185735 2.016199 -10.271316 -1.208610 15.415348 -77.514908 18.996180 11.933134 1.459916 1.334596 -9.504650 16.305149 21.468939 0.478734 9.268967 -1.985222 -9.357501 79.869322 8.817675 0.295665 1.248570 -1.659728 -4.014150 -9.429126 -16.600462 7.216114 -1.999449 -6.786788 4.829241 -2.182902 -7.682850 -5.371532 2.062878 -2.038984 0.016270 -0.034260 0.008156 10.937231 3.745515 3.813759 2.979555 1.354407 10.519820 -7.288317 -3.923386 5.601342 0.032699 0.015043 -0.004489 
-14.239283 -5.654020 82.751190 3.838262 6.336148 -113.682468 3.233172 -0.226265 0.557538 1.434180 -0.103342 0.241205 1.434180 -0.103342 0.241203 1.075595 -0.078074 0.180660 18.192627 -0.187576 0.679076 -2.395524 -0.567591 1.177485 2.018569 -10.274140 -1.213564 15.431378 -77.544941 18.996498 11.987223 1.461716 1.332415 -9.553068 16.311487 21.461125 0.488007 9.272176 -1.990195 -9.440694 79.875388 8.899752 0.302917 1.239425 -1.646163 -4.018941 -9.448827 -16.632349 7.244868 -2.003791 -6.825485 4.821028 -2.188480 -7.665149 -5.381923 2.077505 -2.054009 0.017468 -0.030537 0.007773 10.951977 3.742555 3.793728 2.989591 1.348023 10.510338 -7.297163 -3.915975 5.615682 0.033032 0.015997 -0.004403 
-14.242970 -5.642249 82.751228 3.835573 6.348378 -113.650427 3.225110 -0.229866 0.554462 1.431171 -0.105205 0.239892 1.431172 -0.105206 0.239891 1.073337 -0.079466 0.179676 18.192304 -0.187433 0.675950 -2.396154 -0.566296 1.171825 2.034185 -10.268864 -1.210965 15.379902 -77.580622 18.932072 12.040058 1.467660 1.328268 -9.575297 16.319064 21.475585 0.504505 9.286012 -1.986382 -9.528166 79.878728 8.987999 0.305548 1.229939 -1.634320 -4.003923 -9.470751 -16.662600 7.269620 -2.004980 -6.859565 4.810677 -2.194341 -7.657982 -5.387313 2.086425 -2.049839 0.017204 -0.025792 0.007526 10.964771 3.735289 3.773634 2.997991 1.344761 10.504699 -7.305054 -3.907490 5.581740 0.033135 0.016828 -0.005237 
-14.245871 -5.627790 82.751801 3.835623 6.358344 -113.620190 3.223895 -0.230946 0.552882 1.430477 -0.105435 0.239249 1.430477 -0.105435 0.239255 1.072816 -0.079638 0.179194 18.185508 -0.192361 0.671261 -2.408795 -0.573799 1.161600 2.035069 -10.270619 -1.211998 15.344191 -77.616303 18.880065 12.122698 1.471602 1.326580 -9.649923 16.346439 21.511029 0.505596 9.289447 -1.980539 -9.594676 79.885701 9.058705 0.310881 1.222021 -1.625085 -4.006015 -9.495441 -16.702186 7.298551 -2.015451 -6.888461 4.788474 -2.193296 -7.656400 -5.386543 2.092535 -2.031462 0.016682 -0.020670 0.007572 10.973878 3.727105 3.763130 3.005185 1.342790 10.495007 -7.311836 -3.899978 5.578841 0.033997 0.014865 -0.004276 
-14.249495 -5.614357 82.752251 3.834887 6.365574 -113.593354 3.219797 -0.231975 0.549150 1.428353 -0.106058 0.238339 1.428354 -0.106058 0.238343 1.071224 -0.080101 0.178507 18.179267 -0.196057 0.667859 -2.420388 -0.579474 1.154136 2.034943 -10.269428 -1.209569 15.283474 -77.653035 18.791457 12.188275 1.479727 1.324372 -9.707107 16.391399 21.588678 0.512746 9.292224 -1.985389 -9.778637 79.890530 9.248779 0.309759 1.215463 -1.617318 -4.002238 -9.520952 -16.740536 7.325691 -2.030302 -6.910131 4.759278 -2.187396 -7.666169 -5.381779 2.096532 -2.048040 0.016984 -0.015403 0.006789 10.984705 3.716224 3.755705 3.009984 1.340555 10.482252 -7.320312 -3.890216 5.566418 0.034992 0.014167 -0.004080 
-14.251092 -5.599391 82.752563 3.833614 6.368090 -113.576053 3.214518 -0.231697 0.549744 1.427054 -0.106162 0.239259 1.427055 -0.106163 0.239260 1.070249 -0.080182 0.179194 18.171882 -0.201722 0.665102 -2.434094 -0.588963 1.147196 2.036673 -10.269843 -1.208931 15.235514 -77.685834 18.719609 12.277643 1.491162 1.324917 -9.806541 16.465967 21.696941 0.508093 9.294708 -1.981543 -9.901875 79.897231 9.386964 0.313043 1.207837 -1.607625 -3.996769 -9.545311 -16.781648 7.343090 -2.045360 -6.919596 4.734842 -2.180625 -7.680019 -5.367683 2.098755 -2.040498 0.008328 -0.010247 0.005341 10.986849 3.710084 3.744124 3.018540 1.341333 10.478335 -7.320955 -3.885602 5.601657 0.025905 0.012770 -0.002384 
-14.251870 -5.588490 82.752968 3.834158 6.367536 -113.567816 3.211316 -0.230198 0.553961 1.425703 -0.106191 0.241604 1.425703 -0.106191 0.241601 1.069236 -0.080207 0.180954 18.161835 -0.207224 0.660618 -2.452775 -0.597609 1.137149 2.031502 -10.273891 -1.214223 15.201293 -77.713872 18.658934 12.341666 1.503333 1.323579 -9.888225 16.557615 21.827205 0.506451 9.292515 -1.986108 -10.063982 79.901766 9.556942 0.310362 1.205801 -1.599377 -3.984379 -9.572573 -16.823628 7.353596 -2.057294 -6.918795 4.720733 -2.178867 -7.688063 -5.367239 2.102194 -2.041522 0.008621 -0.006236 0.005032 10.989181 3.699443 3.731130 3.023460 1.340911 10.479964 -7.329159 -3.879264 5.608227 0.026581 0.012994 -0.003299 
-14.249823 -5.580249 82.753242 3.832906 6.366696 -113.567843 3.207166 -0.229961 0.557315 1.424118 -0.106207 0.243458 1.424118 -0.106207 0.243459 1.068047 -0.080223 0.182346 18.151231 -0.209675 0.658531 -2.472467 -0.601480 1.132478 2.037991 -10.271270 -1.210558 15.204476 -77.742217 18.644743 12.386844 1.524814 1.323579 -9.987412 16.649315 21.949356 0.503461 9.295744 -1.981056 -10.189267 79.902866 9.695442 0.304403 1.203079 -1.588094 -3.979174 -9.596814 -16.865013 7.356726 -2.060943 -6.913222 4.715790 -2.182486 -7.689866 -5.369430 2.107241 -2.037938 0.009635 -0.003669 0.005318 10.987587 3.690178 3.715000 3.030530 1.344804 10.480877 -7.335122 -3.876929 5.560416 0.025865 0.013404 -0.004100 
-14.247341 -5.572430 82.753456 3.830528 6.367346 -113.576695 3.203434 -0.230634 0.557837 1.422370 -0.106196 0.243756 1.422370 -0.106197 0.243756 1.066736 -0.080215 0.182571 18.140769 -0.207511 0.658933 -2.491909 -0.597753 1.133890 2.053859 -10.268477 -1.195844 15.194522 -77.759450 18.625465 12.467180 1.544191 1.328486 -10.129003 16.724755 22.021076 0.508487 9.302732 -1.971841 -10.342644 79.903405 9.858866 0.300234 1.199494 -1.579093 -3.981407 -9.623841 -16.905917 7.352615 -2.065642 -6.906328 4.721473 -2.180689 -7.688546 -5.374973 2.111890 -2.054725 0.011003 -0.001764 0.004711 10.983216 3.689517 3.699199 3.037535 1.347923 10.492985 -7.339590 -3.877322 5.587114 0.024842 0.012692 -0.003303 
-14.241000 -5.562294 82.753281 3.828828 6.367104 -113.589604 3.204197 -0.229032 0.560509 1.422607 -0.104906 0.244829 1.422607 -0.104906 0.244825 1.066913 -0.079249 0.183377 18.126637 -0.205968 0.658443 -2.518170 -0.594899 1.133444 2.060570 -10.269917 -1.192642 15.236012 -77.769415 18.664008 12.514746 1.564620 1.335766 -10.266945 16.772906 22.021353 0.504459 9.304610 -1.966061 -10.457457 79.906977 9.983875 0.303013 1.186964 -1.561774 -3.986427 -9.651434 -16.951240 7.350632 -2.070763 -6.906592 4.722800 -2.177556 -7.675452 -5.378140 2.116225 -2.031931 0.012299 -0.000427 0.005745 10.976099 3.685951 3.683839 3.046748 1.349993 10.503886 -7.344846 -3.874969 5.659957 0.025290 0.012427 -0.002816 
-14.234093 -5.556121 82.752815 3.826127 6.365800 -113.602916 3.206057 -0.226731 0.554839 1.423370 -0.104130 0.242955 1.423370 -0.104130 0.242952 1.067486 -0.078664 0.181976 18.110971 -0.201264 0.660330 -2.547265 -0.587075 1.138396 2.055155 -10.268280 -1.190079 15.306862 -77.770194 18.728775 12.540570 1.584960 1.345366 -10.348075 16.779418 21.938352 0.516977 9.306542 -1.961360 -10.525224 79.915078 10.046043 0.294125 1.169174 -1.542686 -3.994270 -9.679705 -17.001133 7.342305 -2.075374 -6.918018 4.725761 -2.178425 -7.653516 -5.379451 2.125109 -2.045039 0.014162 0.001699 0.005574 10.970325 3.679568 3.672622 3.055806 1.354142 10.502744 -7.349854 -3.874988 5.643219 0.024846 0.014454 -0.003955 
-14.225918 -5.546553 82.752533 3.825191 6.360050 -113.617274 3.211595 -0.225012 0.553483 1.425578 -0.103372 0.242110 1.425578 -0.103373 0.242107 1.069143 -0.078094 0.181341 18.093265 -0.199195 0.659041 -2.580175 -0.583023 1.136663 2.052695 -10.269347 -1.187968 15.348622 -77.765003 18.782768 12.562979 1.604905 1.354564 -10.391989 16.767742 21.809026 0.526187 9.299332 -1.973040 -10.438705 79.930022 9.952223 0.260546 1.152777 -1.522971 -3.992383 -9.712769 -17.038988 7.332692 -2.080464 -6.936234 4.730317 -2.179523 -7.628609 -5.383249 2.129961 -2.039453 0.015366 0.004240 0.005483 10.957871 3.675791 3.664770 3.060068 1.356178 10.509362 -7.349300 -3.877650 5.689216 0.024800 0.015112 -0.003229 
-14.218268 -5.539917 82.752441 3.822734 6.354216 -113.630790 3.221399 -0.224370 0.545124 1.429797 -0.103457 0.239135 1.429797 -0.103457 0.239135 1.072308 -0.078153 0.179114 18.073855 -0.195941 0.659512 -2.616241 -0.577412 1.138523 2.042849 -10.259504 -1.179862 15.451920 -77.750243 18.894709 12.580148 1.627816 1.369094 -10.400247 16.761032 21.683248 0.497770 9.306736 -1.965614 -10.279825 79.937119 9.811924 0.230127 1.135979 -1.503341 -4.000426 -9.733461 -17.071259 7.320861 -2.087713 -6.961499 4.734076 -2.176413 -7.602905 -5.385678 2.136202 -2.030659 0.016935 0.004894 0.005688 10.950165 3.669292 3.660861 3.062037 1.357545 10.511851 -7.349960 -3.878308 5.698503 0.024635 0.018210 -0.004731 
